HIERARCHY
ROOT hip
{
	OFFSET 0.000000 0.000000 0.000000
	CHANNELS 6 Xposition Yposition Zposition Xrotation Zrotation Yrotation 
	JOINT abdomen
	{
		OFFSET 0.000000 3.422050 0.000000
		CHANNELS 3 Xrotation Zrotation Yrotation 
		JOINT chest
		{
			OFFSET 0.000000 8.486693 -0.684411
			CHANNELS 3 Xrotation Zrotation Yrotation 
			JOINT neck
			{
				OFFSET 0.000000 10.266162 -0.273764
				CHANNELS 3 Xrotation Zrotation Yrotation 
				JOINT head
				{
					OFFSET 0.000000 3.148285 0.000000
					CHANNELS 3 Xrotation Zrotation Yrotation 
					End Site
					{
						OFFSET 0.000000 3.148289 0.000000
					}
				}
			}
			JOINT lCollar
			{
				OFFSET 3.422053 6.707223 -0.821293
				CHANNELS 3 Yrotation Zrotation Xrotation 
				JOINT lShldr
				{
					OFFSET 3.285171 0.000000 0.000000
					CHANNELS 3 Zrotation Yrotation Xrotation 
					JOINT lForeArm
					{
						OFFSET 10.129278 0.000000 0.000000
						CHANNELS 3 Yrotation Zrotation Xrotation 
						JOINT lHand
						{
							OFFSET 8.486692 0.000000 0.000000
							CHANNELS 3 Zrotation Yrotation Xrotation 
							End Site
							{
								OFFSET 4.106464 0.000000 0.000000
							}
						}
					}
				}
			}
			JOINT rCollar
			{
				OFFSET -3.558935 6.707223 -0.821293
				CHANNELS 3 Yrotation Zrotation Xrotation 
				JOINT rShldr
				{
					OFFSET -3.148289 0.000000 0.000000
					CHANNELS 3 Zrotation Yrotation Xrotation 
					JOINT rForeArm
					{
						OFFSET -10.266159 0.000000 0.000000
						CHANNELS 3 Yrotation Zrotation Xrotation 
						JOINT rHand
						{
							OFFSET -8.349810 0.000000 0.000000
							CHANNELS 3 Zrotation Yrotation Xrotation 
							End Site
							{
								OFFSET -4.106464 0.000000 0.000000
							}
						}
					}
				}
			}
		}
	}
	JOINT lThigh
	{
		OFFSET 5.338403 -1.642589 1.368821
		CHANNELS 3 Xrotation Zrotation Yrotation 
		JOINT lShin
		{
			OFFSET -2.053232 -20.121670 0.000000
			CHANNELS 3 Xrotation Zrotation Yrotation 
			JOINT lFoot
			{
				OFFSET 0.000000 -19.300380 -1.231939
				CHANNELS 3 Xrotation Yrotation Zrotation 
				End Site
				{
					OFFSET 0.000000 -2.463878 4.653993
				}
			}
		}
	}
	JOINT rThigh
	{
		OFFSET -5.338403 -1.642589 1.368821
		CHANNELS 3 Xrotation Zrotation Yrotation 
		JOINT rShin
		{
			OFFSET 2.053232 -20.121670 0.000000
			CHANNELS 3 Xrotation Zrotation Yrotation 
			JOINT rFoot
			{
				OFFSET 0.000000 -19.300380 -1.231939
				CHANNELS 3 Xrotation Yrotation Zrotation 
				End Site
				{
					OFFSET 0.000000 -2.463878 4.653993
				}
			}
		}
	}
}
MOTION
Frames: 12
Frame Time: 0.033333
0.000000 43.528500 0.000000 0.000000 0.000000 0.000000 0.000000 0.000000 0.000000 0.000000 0.000000 0.000000 0.000000 0.000000 0.000000 0.000000 0.000000 0.000000 0.000000 0.000000 0.000000 0.000000 0.000000 0.000000 0.000000 0.000000 0.000000 0.000000 0.000000 0.000000 0.000000 0.000000 0.000000 0.000000 0.000000 0.000000 0.000000 0.000000 0.000000 0.000000 0.000000 0.000000 0.000000 0.000000 0.000000 0.000000 0.000000 0.000000 0.000000 0.000000 0.000000 0.000000 0.000000 0.000000 0.000000 0.000000 0.000000 0.000000 0.000000 0.000000 
0.000000 42.996826 -20.001890 -69.003334 0.000000 0.000000 50.131504 -0.850283 -0.596519 34.567654 -0.626321 -0.453098 -0.788606 0.000000 0.000000 -0.715168 0.000000 0.000000 -0.001347 -8.002656 -0.194655 0.256991 -4.002264 47.550594 -8.002649 0.000000 0.000000 -7.000325 0.000000 0.000000 -0.002182 7.999156 -0.194408 -0.261610 4.000473 47.550415 7.999141 0.000000 0.000000 6.996825 0.000000 0.000000 -114.224380 36.512875 -3.823355 87.466362 14.502838 -1.427012 35.978825 0.071582 2.173813 -114.227928 -36.517891 3.825667 87.466949 -14.502938 1.421952 35.978760 -0.075985 -2.176064 
0.000000 42.996826 -20.001890 -69.003334 0.000000 0.000000 50.592773 -0.850168 -0.596576 33.722660 -0.626308 -0.452882 -1.573522 0.000000 0.000000 -1.428944 0.000000 0.000000 0.112343 -8.149110 -0.158801 0.256991 -4.002264 47.550594 -8.002649 0.000000 0.000000 -6.930532 0.073238 0.374915 -0.103576 8.160974 -0.160494 -0.261610 4.000473 47.550415 7.999141 0.000000 0.000000 6.844028 -0.091582 0.375478 -114.174080 36.314358 -3.767925 87.466362 14.502840 -1.427013 35.867195 0.247898 2.076033 -114.312172 -36.114456 3.739257 87.925774 -14.550600 1.306951 35.729744 -0.425489 -2.041345 
0.000000 42.996826 -20.001890 -69.003326 0.000000 0.000000 51.054119 -0.850053 -0.596633 32.877182 -0.626291 -0.452667 -2.358845 0.000000 0.000000 -2.143025 0.000000 0.000000 0.226171 -8.295494 -0.122639 0.256991 -4.002264 47.550594 -8.002649 0.000000 0.000000 -6.860250 0.146027 0.749966 -0.205112 8.322733 -0.126277 -0.261610 4.000473 47.550411 7.999140 0.000000 0.000000 6.690611 -0.182174 0.751254 -114.124138 36.115795 -3.712850 87.466347 14.502838 -1.427014 35.755852 0.424413 1.978591 -114.396736 -35.711052 3.652540 88.384842 -14.597373 1.191517 35.481491 -0.775634 -1.908114 
0.000000 42.996826 -20.001890 -69.003334 0.000000 0.000000 51.515530 -0.849938 -0.596688 32.031273 -0.626271 -0.452452 -3.144499 0.000000 0.000000 -2.857355 0.000000 0.000000 0.340137 -8.441812 -0.086168 0.256991 -4.002264 47.550594 -8.002649 0.000000 0.000000 -6.789485 0.218362 1.125147 -0.306790 8.484439 -0.091754 -0.261610 4.000473 47.550415 7.999141 0.000000 0.000000 6.536586 -0.271767 1.127319 -114.074554 35.917191 -3.658126 87.466362 14.502838 -1.427012 35.644814 0.601122 1.881486 -114.481628 -35.307709 3.565514 88.844185 -14.643254 1.075656 35.233997 -1.126401 -1.776371 
0.000000 42.996826 -20.001890 -69.003334 0.000000 0.000000 51.976997 -0.849823 -0.596743 31.185045 -0.626248 -0.452237 -3.930413 0.000000 0.000000 -3.571879 0.000000 0.000000 0.454243 -8.588061 -0.049389 0.256991 -4.002264 47.550594 -8.002649 0.000000 0.000000 -6.718242 0.290238 1.500449 -0.408612 8.646083 -0.056926 -0.261610 4.000473 47.550415 7.999141 0.000000 0.000000 6.381960 -0.360356 1.503661 -114.025345 35.718544 -3.603751 87.466362 14.502840 -1.427012 35.534050 0.778024 1.784716 -114.566879 -34.904430 3.478183 89.303764 -14.688244 0.959385 34.987259 -1.477771 -1.646113 
0.000000 42.996826 -20.001890 -69.003334 0.000000 0.000000 52.438503 -0.849706 -0.596797 30.338581 -0.626222 -0.452022 -4.716510 0.000000 0.000000 -4.286544 0.000000 0.000000 0.568490 -8.734238 -0.012300 0.256992 -4.002264 47.550591 -8.002649 0.000000 0.000000 -6.646526 0.361649 1.875865 -0.510578 8.807671 -0.021791 -0.261611 4.000473 47.550407 7.999140 0.000000 0.000000 6.226743 -0.447932 1.880269 -113.976456 35.519844 -3.549716 87.466362 14.502838 -1.427012 35.423592 0.955117 1.688283 -114.652443 -34.501225 3.390543 89.763580 -14.732336 0.842711 34.741249 -1.829724 -1.517336 
0.000000 42.996826 -20.001890 -69.003334 0.000000 0.000000 52.900028 -0.849590 -0.596849 29.491982 -0.626193 -0.451807 -5.502720 0.000000 0.000000 -5.001291 0.000000 0.000000 0.682879 -8.880342 0.025099 0.256991 -4.002264 47.550594 -8.002649 0.000000 0.000000 -6.574341 0.432592 2.251386 -0.612691 8.969196 0.013650 -0.261610 4.000473 47.550415 7.999141 0.000000 0.000000 6.070945 -0.534489 2.257133 -113.927948 35.321125 -3.496025 87.466362 14.502838 -1.427012 35.313412 1.132396 1.592185 -114.738365 -34.098122 3.302591 90.223579 -14.775515 0.725646 34.495964 -2.182242 -1.390039 
0.000000 42.996826 -20.001890 -69.003334 0.000000 0.000000 53.361572 -0.849473 -0.596901 28.645342 -0.626161 -0.451594 -6.288967 0.000000 0.000000 -5.716066 0.000000 0.000000 0.797411 -9.026376 0.062808 0.256991 -4.002264 47.550594 -8.002649 0.000000 0.000000 -6.501690 0.503060 2.627004 -0.714952 9.130662 0.049399 -0.261610 4.000473 47.550415 7.999141 0.000000 0.000000 5.914577 -0.620021 2.634242 -113.879776 35.122353 -3.442669 87.466362 14.502838 -1.427012 35.203526 1.309861 1.496421 -114.824623 -33.695110 3.214324 90.683769 -14.817786 0.608202 34.251396 -2.535307 -1.264220 
0.000000 42.996826 -20.001890 -69.003334 0.000000 0.000000 53.823109 -0.849355 -0.596952 27.798748 -0.626125 -0.451380 -7.075175 0.000000 0.000000 -6.430813 0.000000 0.000000 0.912087 -9.172331 0.100828 0.256991 -4.002264 47.550594 -8.002649 0.000000 0.000000 -6.428579 0.573050 3.002711 -0.817360 9.292063 0.085456 -0.261611 4.000473 47.550415 7.999141 0.000000 0.000000 5.757649 -0.704520 3.011585 -113.831917 34.923542 -3.389645 87.466362 14.502840 -1.427013 35.093937 1.487508 1.400991 -114.911224 -33.292229 3.125749 91.144127 -14.859147 0.490390 34.007542 -2.888898 -1.139876 
0.000000 42.996826 -20.001890 -69.003334 0.000000 0.000000 54.284607 -0.849237 -0.597002 26.952290 -0.626086 -0.451168 -7.861275 0.000000 0.000000 -7.145477 0.000000 0.000000 1.026907 -9.318213 0.139160 0.256991 -4.002265 47.550594 -8.002649 0.000000 0.000000 -6.355014 0.642557 3.378500 -0.919918 9.453398 0.121822 -0.261610 4.000473 47.550415 7.999142 0.000000 0.000000 5.600171 -0.787980 3.389149 -113.784447 34.724709 -3.336955 87.466362 14.502838 -1.427012 34.984623 1.665334 1.305894 -114.998161 -32.889462 3.036853 91.604668 -14.899587 0.372218 33.764393 -3.242999 -1.017005 
0.000000 42.996826 -20.001890 -69.003334 0.000000 0.000000 54.746063 -0.849119 -0.597051 26.106066 -0.626045 -0.450956 -8.647188 0.000000 0.000000 -7.860003 0.000000 0.000000 1.141873 -9.464012 0.177803 0.256991 -4.002264 47.550594 -8.002649 0.000000 0.000000 -6.280995 0.711575 3.754361 -1.022628 9.614666 0.158498 -0.261610 4.000473 47.550415 7.999141 0.000000 0.000000 5.442154 -0.870396 3.766925 -113.737282 34.525841 -3.284587 87.466362 14.502838 -1.427012 34.875610 1.843338 1.211129 -115.085449 -32.486847 2.947638 92.065315 -14.939104 0.253703 33.521931 -3.597588 -0.895604 
